<svg xmlns="http://www.w3.org/2000/svg" width="560" height="148" viewBox="0 0 560 148" fill="none"><g clip-path="url(#clip0_7_11)"><path d="M360.63 17.0199H375.81L363.44 82.8299H388.75L386.13 96.1499H344.31L360.63 17.0199Z" fill="#283588"></path><path d="M29.5 23.7699C29.5 23.7699 75.81 -5.86007 94.94 32.3899C114.07 70.6399 70 122.01 56.5 134.01C56.5 134.01 102.47 77.9999 79.38 38.1299C64.03 11.6299 29.5 23.7499 29.5 23.7499V23.7699Z" fill="#E81B25"></path><path d="M66.41 8.75994C66.41 8.75994 98.64 -15.0801 114.13 15.8999C129.01 45.6499 91.31 100.93 80.38 110.65C80.38 110.65 112.63 70.6499 105.86 30.3999C100.28 -2.76006 66.41 8.75994 66.41 8.75994Z" fill="#E81B25"></path><path d="M121.47 20.4L116.13 13.46L117.56 20.4C117.56 20.4 120.82 20.02 121.48 20.4H121.47Z" fill="#283588"></path><path d="M105.91 81.62L119.88 68.77L105.91 78.71V81.62Z" fill="#283588"></path><path d="M90.37 21.65H100.38C100.38 21.65 92.26 5.61999 75.88 11.49C75.88 11.49 84.16 13.46 90.37 21.65Z" fill="#283588"></path><path d="M53.5 23.6499C53.5 23.6499 65 25.8999 69.5 32.0299C69.5 32.0299 35.12 54.9099 18.12 89.1499C18.12 89.1499 44.03 110.37 75.87 93.8999C75.87 93.8999 76.37 102.4 70.62 104.15C70.62 104.15 46.62 119.4 12.87 106.4C12.87 106.4 9.87 110.15 12.87 129.15C12.87 129.15 -5.88 121.4 1.87 91.3999C9.62 61.3999 37.32 34.0999 53.5 23.6499Z" fill="#283588"></path><path d="M213.63 37.4899C212.13 8.7399 171.63 13.7999 171.63 13.7999H156.38L141.07 98.5499H162.26L167.14 70.9899H168.92L183.36 98.5499H205.02V94.1399L189.27 69.1099L190.11 68.0799C190.11 68.0799 215.22 67.6999 213.64 37.4899H213.63ZM181.94 51.7099H171.44L174.63 32.7699H184.57C184.57 32.7699 192.45 32.3899 192.45 40.8299C192.45 49.2699 184.57 51.7099 181.95 51.7099H181.94Z" fill="#2E2D31"></path><path d="M216.38 12.3999H289.25L278.5 31.8999H254.88L242.13 98.5499H221.41L234.53 31.4599H206.03L216.38 12.3999Z" fill="#2E2D31"></path><path d="M314.88 12.3999H292.76L248.59 94.2799V98.5599H268.2L279.08 81.6199H307.2L310.58 98.5599H331.96V96.3399L314.9 12.3999H314.88ZM290.19 61.2799L299.19 45.1599L303.31 61.2799H290.19Z" fill="#2E2D31"></path><path d="M334.94 17.0199H353.69L349.57 42.9899C349.57 42.9899 350.76 25.0199 334.95 17.0199H334.94Z" fill="#E81B25"></path><path d="M429.63 15.94C417.88 18.82 401.63 26.56 396.38 55.48C393.1 73.56 401.05 85.83 412.17 92.51C423.07 99.06 436.51 99.53 448.26 94.67C460.26 89.71 475.57 78.66 476.63 54.4C478.38 14.15 441.38 13.07 429.63 15.94ZM461.84 55.15C461.17 70.54 450.93 78.57 443.32 81.71C435.86 84.79 427.86 83.49 420.94 79.33C413.88 75.09 410.11 66.56 412.19 55.09C415.52 36.74 425.92 31.95 433.38 30.13C440.84 28.31 462.95 29.61 461.84 55.15Z" fill="#283588"></path><path d="M554.5 54.5199H511L507.25 69.3999H540.61C536.78 75.8399 530.97 79.7399 526.18 81.7099C518.72 84.7899 510.72 83.4899 503.8 79.3299C496.74 75.0899 492.97 66.5599 495.05 55.0899C498.38 36.7399 508.78 31.9499 516.24 30.1299C521.82 28.7599 535.62 29.1499 541.74 40.1499H558.23C551.7 13.9299 522.65 13.4499 512.49 15.9399C500.74 18.8199 484.49 26.5599 479.24 55.4799C475.96 73.5599 483.91 85.8299 495.03 92.5099C505.93 99.0599 519.37 99.5299 531.12 94.6699C543.1 89.7199 558.38 78.6899 559.48 54.5199H554.49H554.5Z" fill="#283588"></path><path d="M222.9 126.08V129.58H217.13V147.71H212.79V129.58H207.02V126.08H222.89H222.9Z" fill="#949698"></path><path d="M242.8 147.72L238.03 139.29H235.98V147.72H231.64V126.08H239.76C241.43 126.08 242.86 126.37 244.04 126.96C245.22 127.55 246.1 128.34 246.69 129.35C247.28 130.35 247.57 131.47 247.57 132.71C247.57 134.14 247.16 135.42 246.33 136.57C245.5 137.72 244.27 138.51 242.64 138.94L247.82 147.71H242.8V147.72ZM235.98 136.03H239.61C240.79 136.03 241.67 135.75 242.24 135.18C242.82 134.61 243.11 133.82 243.11 132.81C243.11 131.8 242.82 131.05 242.24 130.5C241.66 129.95 240.78 129.68 239.61 129.68H235.98V136.04V136.03Z" fill="#949698"></path><path d="M270.36 143.59H261.74L260.31 147.71H255.75L263.53 126.04H268.58L276.36 147.71H271.77L270.34 143.59H270.36ZM269.18 140.12L266.05 131.07L262.92 140.12H269.18Z" fill="#949698"></path><path d="M303.37 147.72H299.03L289.2 132.87V147.72H284.86V126.05H289.2L299.03 140.93V126.05H303.37V147.72Z" fill="#949698"></path><path d="M316.62 147.16C315.41 146.64 314.45 145.9 313.75 144.93C313.05 143.96 312.69 142.81 312.67 141.49H317.32C317.38 142.38 317.7 143.08 318.27 143.6C318.84 144.12 319.62 144.38 320.61 144.38C321.6 144.38 322.42 144.14 323 143.65C323.58 143.16 323.87 142.53 323.87 141.74C323.87 141.1 323.67 140.57 323.28 140.16C322.89 139.75 322.4 139.42 321.81 139.18C321.22 138.94 320.41 138.68 319.38 138.39C317.97 137.98 316.83 137.57 315.95 137.17C315.07 136.77 314.32 136.16 313.69 135.34C313.06 134.52 312.74 133.43 312.74 132.07C312.74 130.79 313.06 129.67 313.7 128.72C314.34 127.77 315.24 127.04 316.4 126.53C317.56 126.02 318.88 125.77 320.37 125.77C322.6 125.77 324.42 126.31 325.81 127.4C327.2 128.48 327.97 130 328.12 131.94H323.35C323.31 131.2 322.99 130.58 322.4 130.1C321.81 129.62 321.03 129.37 320.06 129.37C319.21 129.37 318.54 129.59 318.03 130.02C317.52 130.45 317.27 131.08 317.27 131.91C317.27 132.49 317.46 132.97 317.84 133.35C318.22 133.73 318.7 134.04 319.27 134.28C319.84 134.52 320.64 134.79 321.67 135.1C323.08 135.51 324.22 135.93 325.11 136.34C326 136.75 326.76 137.37 327.4 138.2C328.04 139.03 328.36 140.11 328.36 141.45C328.36 142.61 328.06 143.68 327.46 144.67C326.86 145.66 325.98 146.45 324.83 147.04C323.67 147.63 322.3 147.92 320.71 147.92C319.2 147.92 317.84 147.66 316.63 147.15L316.62 147.16Z" fill="#949698"></path><path d="M352.65 136.03C352.1 137.04 351.24 137.86 350.08 138.48C348.91 139.1 347.44 139.41 345.66 139.41H342.03V147.72H337.69V126.08H345.66C347.33 126.08 348.76 126.37 349.94 126.95C351.12 127.53 352 128.32 352.59 129.34C353.18 130.36 353.47 131.5 353.47 132.78C353.47 133.94 353.2 135.02 352.65 136.04V136.03ZM348.14 135.08C348.72 134.53 349.01 133.76 349.01 132.77C349.01 130.66 347.83 129.61 345.48 129.61H342.04V135.9H345.48C346.68 135.9 347.57 135.63 348.15 135.08H348.14Z" fill="#949698"></path><path d="M366.58 146.51C364.89 145.56 363.54 144.24 362.55 142.56C361.56 140.88 361.06 138.97 361.06 136.84C361.06 134.71 361.56 132.84 362.55 131.15C363.54 129.46 364.88 128.15 366.58 127.2C368.27 126.25 370.13 125.77 372.16 125.77C374.19 125.77 376.07 126.25 377.76 127.2C379.44 128.15 380.78 129.47 381.76 131.15C382.74 132.83 383.23 134.73 383.23 136.84C383.23 138.95 382.74 140.88 381.76 142.56C380.78 144.24 379.44 145.56 377.75 146.51C376.06 147.46 374.2 147.94 372.17 147.94C370.14 147.94 368.28 147.47 366.59 146.51H366.58ZM375.6 143.18C376.59 142.59 377.37 141.75 377.93 140.65C378.49 139.56 378.77 138.28 378.77 136.84C378.77 135.4 378.49 134.13 377.93 133.04C377.37 131.96 376.6 131.12 375.6 130.54C374.61 129.96 373.46 129.67 372.16 129.67C370.86 129.67 369.71 129.96 368.7 130.54C367.7 131.12 366.92 131.95 366.36 133.04C365.8 134.12 365.52 135.39 365.52 136.84C365.52 138.29 365.8 139.56 366.36 140.65C366.92 141.75 367.7 142.59 368.7 143.18C369.7 143.77 370.85 144.06 372.16 144.06C373.47 144.06 374.61 143.77 375.6 143.18Z" fill="#949698"></path><path d="M403.19 147.72L398.42 139.29H396.37V147.72H392.03V126.08H400.15C401.82 126.08 403.25 126.37 404.43 126.96C405.61 127.55 406.49 128.34 407.08 129.35C407.67 130.35 407.96 131.47 407.96 132.71C407.96 134.14 407.55 135.42 406.72 136.57C405.89 137.72 404.66 138.51 403.03 138.94L408.21 147.71H403.19V147.72ZM396.37 136.03H400C401.18 136.03 402.06 135.75 402.63 135.18C403.21 134.61 403.5 133.82 403.5 132.81C403.5 131.8 403.21 131.05 402.63 130.5C402.05 129.95 401.17 129.68 400 129.68H396.37V136.04V136.03Z" fill="#949698"></path><path d="M432.21 126.08V129.58H426.44V147.71H422.1V129.58H416.33V126.08H432.2H432.21Z" fill="#949698"></path><path d="M445.29 129.58V135H452.58V138.44H445.29V144.17H453.51V147.7H440.95V126.03H453.51V129.56H445.29V129.58Z" fill="#949698"></path><path d="M466.42 147.16C465.21 146.64 464.25 145.9 463.55 144.93C462.85 143.96 462.49 142.81 462.47 141.49H467.12C467.18 142.38 467.5 143.08 468.07 143.6C468.64 144.12 469.42 144.38 470.41 144.38C471.4 144.38 472.22 144.14 472.8 143.65C473.38 143.16 473.67 142.53 473.67 141.74C473.67 141.1 473.47 140.57 473.08 140.16C472.69 139.75 472.2 139.42 471.61 139.18C471.02 138.94 470.21 138.68 469.18 138.39C467.77 137.98 466.63 137.57 465.75 137.17C464.87 136.77 464.12 136.16 463.49 135.34C462.86 134.52 462.54 133.43 462.54 132.07C462.54 130.79 462.86 129.67 463.5 128.72C464.14 127.77 465.04 127.04 466.2 126.53C467.36 126.02 468.68 125.77 470.17 125.77C472.4 125.77 474.22 126.31 475.61 127.4C477 128.48 477.77 130 477.92 131.94H473.15C473.11 131.2 472.79 130.58 472.2 130.1C471.61 129.62 470.83 129.37 469.86 129.37C469.01 129.37 468.34 129.59 467.83 130.02C467.32 130.45 467.07 131.08 467.07 131.91C467.07 132.49 467.26 132.97 467.64 133.35C468.02 133.73 468.5 134.04 469.07 134.28C469.64 134.52 470.44 134.79 471.47 135.1C472.88 135.51 474.02 135.93 474.91 136.34C475.8 136.75 476.56 137.37 477.2 138.2C477.84 139.03 478.16 140.11 478.16 141.45C478.16 142.61 477.86 143.68 477.26 144.67C476.66 145.66 475.78 146.45 474.63 147.04C473.47 147.63 472.1 147.92 470.51 147.92C469 147.92 467.64 147.66 466.43 147.15L466.42 147.16Z" fill="#949698"></path></g><defs><clipPath id="clip0_7_11"><rect width="559.49" height="147.93" fill="white"></rect></clipPath></defs></svg>